<svg width="902" height="236" viewBox="0 0 902 236" fill="none" xmlns="http://www.w3.org/2000/svg">
<path d="M206 91.1299L215.91 85.5799C217.38 84.7599 218.23 85.0499 218.63 85.7499C222.68 92.9399 228.4 96.5899 236 96.5899C242.35 96.5899 247.86 93.3499 247.86 88.2699C247.86 83.8899 242.64 80.4999 232.33 78.3899C224 76.6899 217.65 73.7299 213.56 69.3899C210.046 65.7063 208.117 60.7905 208.19 55.6999C208.127 52.4611 208.841 49.2543 210.273 46.3486C211.705 43.4428 213.813 40.9228 216.42 38.9999C221.864 34.6583 228.658 32.3619 235.62 32.5099C248.62 32.5099 257.91 37.7299 263.24 48.1899C263.405 48.528 263.435 48.9159 263.326 49.2757C263.216 49.6356 262.975 49.9407 262.65 50.1299L252.14 56.0699C251.971 56.1662 251.785 56.2276 251.592 56.2505C251.399 56.2735 251.204 56.2574 251.017 56.2033C250.831 56.1492 250.657 56.0582 250.506 55.9356C250.356 55.8131 250.231 55.6615 250.14 55.4899C246.75 49.5799 241.75 46.6199 235.03 46.6199C229.8 46.6199 224.44 49.8699 224.44 53.9599C224.44 58.8999 228.67 61.4399 238.44 63.5599C255.52 67.3699 264.56 75.5599 264.56 87.2799C264.629 90.5211 263.952 93.7348 262.58 96.6723C261.209 99.6098 259.18 102.192 256.65 104.22C251.43 108.6 244.51 110.71 236.04 110.71C221.59 110.71 211.35 104.78 205.45 93.0599C205.278 92.7289 205.239 92.3444 205.341 91.9854C205.443 91.6265 205.679 91.3203 206 91.1299Z" fill="#05662C"/>
<path d="M288.16 76.6898C288.193 79.3952 288.817 82.0606 289.988 84.4996C291.16 86.9386 292.849 89.0922 294.94 90.8098C299.185 94.4309 304.601 96.3856 310.18 96.3098C319.08 96.3098 325.6 92.8198 329.75 85.9398C329.844 85.7709 329.971 85.623 330.124 85.5051C330.277 85.3871 330.453 85.3017 330.64 85.254C330.827 85.2062 331.022 85.1972 331.213 85.2274C331.404 85.2576 331.587 85.3265 331.75 85.4298L340.75 91.4298C342.11 92.3298 342.31 93.1898 341.91 93.8598C335.39 104.81 323.49 110.86 310.41 110.86C299.26 110.86 289.8 107.19 282.18 99.7098C274.56 92.2298 270.89 82.7698 270.89 71.6198C270.699 61.3215 274.605 51.3688 281.75 43.9498C288.95 36.3298 297.987 32.5198 308.86 32.5198C320.29 32.5198 329.33 36.0498 335.86 43.2498C342.39 50.4498 345.6 59.7598 345.6 71.4798C345.6 73.0298 345.54 74.3098 345.45 75.3798C345.42 75.7423 345.253 76.0798 344.984 76.3247C344.715 76.5696 344.364 76.7036 344 76.6998L288.16 76.6898ZM289 63.9998H328.53C327.97 53.4098 319.64 46.9098 308.91 46.9098C298.6 46.8998 290.56 53.6798 289 63.9998Z" fill="#05662C"/>
<path d="M408.29 109.44C407.907 109.437 407.541 109.283 407.271 109.012C407.001 108.74 406.85 108.373 406.85 107.99V67.0899C406.85 55.7999 401.76 48.3199 390.61 48.3199C380.45 48.3199 374.1 56.0799 374.1 67.5199V108C374.1 108.19 374.063 108.379 373.99 108.555C373.917 108.731 373.81 108.891 373.675 109.025C373.541 109.16 373.381 109.267 373.205 109.339C373.029 109.412 372.841 109.45 372.65 109.45H358.75C358.365 109.45 357.997 109.297 357.725 109.025C357.453 108.753 357.3 108.384 357.3 108V35.5099C357.3 35.1253 357.453 34.7565 357.725 34.4846C357.997 34.2126 358.365 34.0599 358.75 34.0599H372.23C372.42 34.0599 372.608 34.0974 372.783 34.1704C372.959 34.2434 373.118 34.3504 373.252 34.4852C373.386 34.6199 373.492 34.7799 373.563 34.9557C373.635 35.1316 373.671 35.3199 373.67 35.5099V44.2199C379.603 36.3199 387.087 32.3665 396.12 32.3599C406.99 32.3599 414.75 36.4599 419.41 44.7899C427.17 36.3199 434.52 32.3599 445.67 32.3599C463.88 32.3599 473.05 44.7899 473.05 62.8599V108C473.051 108.19 473.015 108.378 472.943 108.554C472.872 108.73 472.766 108.89 472.632 109.025C472.498 109.159 472.339 109.266 472.163 109.339C471.988 109.412 471.8 109.45 471.61 109.45H457.7C457.316 109.45 456.947 109.297 456.675 109.025C456.403 108.753 456.25 108.384 456.25 108V66.9999C456.25 55.5699 451.31 48.3699 440.16 48.3699C429.86 48.3699 423.51 55.9899 423.51 67.4199V108C423.51 108.384 423.357 108.753 423.085 109.025C422.813 109.297 422.445 109.45 422.06 109.45L408.29 109.44Z" fill="#05662C"/>
<path d="M504.13 109.44H490.22C489.835 109.44 489.467 109.287 489.195 109.015C488.923 108.743 488.77 108.375 488.77 107.99V35.51C488.77 35.1254 488.923 34.7566 489.195 34.4846C489.467 34.2127 489.835 34.06 490.22 34.06H504.13C504.32 34.06 504.508 34.0975 504.683 34.1705C504.859 34.2435 505.018 34.3505 505.152 34.4853C505.286 34.62 505.391 34.78 505.463 34.9558C505.535 35.1317 505.571 35.32 505.57 35.51V108C505.57 108.382 505.418 108.748 505.148 109.018C504.878 109.288 504.512 109.44 504.13 109.44ZM504.56 22.21H489.64C489.45 22.21 489.262 22.1724 489.087 22.0994C488.911 22.0264 488.752 21.9194 488.618 21.7847C488.484 21.6499 488.378 21.49 488.307 21.3141C488.235 21.1383 488.199 20.9499 488.2 20.76V6.65997C488.199 6.47003 488.235 6.2817 488.307 6.10583C488.378 5.92997 488.484 5.77003 488.618 5.63525C488.752 5.50048 488.911 5.39352 489.087 5.32053C489.262 5.24753 489.45 5.20996 489.64 5.20996H504.56C504.945 5.20996 505.313 5.36275 505.585 5.63467C505.857 5.9066 506.01 6.27541 506.01 6.65997V20.76C506.01 21.1445 505.857 21.5134 505.585 21.7853C505.313 22.0572 504.945 22.21 504.56 22.21Z" fill="#05662C"/>
<path d="M574 109.44C573.81 109.44 573.621 109.402 573.445 109.329C573.269 109.257 573.109 109.15 572.975 109.015C572.84 108.88 572.733 108.721 572.66 108.545C572.588 108.369 572.55 108.18 572.55 107.99V67.2298C572.55 55.9398 567.05 48.4597 555.89 48.4597C545.31 48.4597 538.53 56.0797 538.53 67.5197V108C538.53 108.384 538.377 108.753 538.105 109.025C537.833 109.297 537.465 109.45 537.08 109.45H523.18C522.795 109.45 522.427 109.297 522.155 109.025C521.883 108.753 521.73 108.384 521.73 108V35.5098C521.73 35.1252 521.883 34.7564 522.155 34.4844C522.427 34.2125 522.795 34.0598 523.18 34.0598H536.66C536.85 34.0598 537.039 34.0973 537.215 34.1701C537.391 34.243 537.551 34.3498 537.685 34.4844C537.82 34.6191 537.927 34.7789 538 34.9549C538.073 35.1308 538.11 35.3193 538.11 35.5098V44.2198C543.89 36.4598 551.52 32.5098 561.11 32.5098C579.6 32.5098 589.34 44.9298 589.34 62.9998V108C589.34 108.384 589.187 108.753 588.915 109.025C588.643 109.297 588.275 109.45 587.89 109.45L574 109.44Z" fill="#05662C"/>
<path d="M668 43.6598C675.76 51.1398 679.57 60.3198 679.57 71.3298C679.57 82.3398 675.76 91.7998 668 99.4198C664.322 103.1 659.938 105.998 655.11 107.938C650.282 109.879 645.112 110.822 639.91 110.71C634.689 110.795 629.504 109.84 624.656 107.902C619.808 105.964 615.393 103.08 611.67 99.4198C603.91 91.9398 600.1 82.6198 600.1 71.6098C600.001 66.4126 600.993 61.2524 603.012 56.4622C605.03 51.672 608.031 47.3584 611.82 43.7998C615.535 40.1448 619.939 37.2645 624.777 35.3263C629.615 33.3882 634.789 32.4308 640 32.5098C645.175 32.4056 650.319 33.3385 655.127 35.2535C659.936 37.1684 664.313 40.0267 668 43.6598ZM617.32 71.3298C617.204 77.6208 619.472 83.7228 623.67 88.4098C625.726 90.7022 628.256 92.5208 631.084 93.7397C633.912 94.9587 636.971 95.5489 640.05 95.4698C646.68 95.4698 652.19 93.2098 656.28 88.5498C660.405 83.8836 662.626 77.8369 662.5 71.6098C662.644 65.3542 660.365 59.285 656.14 54.6698C652.05 50.0098 646.54 47.7498 639.91 47.7498C633.28 47.7498 627.77 50.0098 623.53 54.6698C619.376 59.2096 617.133 65.1775 617.27 71.3298H617.32Z" fill="#05662C"/>
<path d="M697.36 34.9999L719.16 89.8499L741 34.9999C741.106 34.7313 741.291 34.5009 741.53 34.3386C741.769 34.1763 742.051 34.0896 742.34 34.0899H756.83C757.068 34.0901 757.302 34.1489 757.512 34.261C757.722 34.3731 757.901 34.5352 758.033 34.7328C758.165 34.9304 758.247 35.1575 758.271 35.3942C758.295 35.6309 758.26 35.8698 758.17 36.0899L727.9 108.57C727.789 108.834 727.603 109.059 727.365 109.218C727.126 109.376 726.846 109.46 726.56 109.46H711.69C711.406 109.461 711.129 109.377 710.892 109.221C710.655 109.064 710.47 108.841 710.36 108.58L679.68 36.0899C679.588 35.8707 679.551 35.632 679.573 35.3951C679.595 35.1582 679.676 34.9306 679.808 34.7325C679.939 34.5344 680.118 34.372 680.328 34.2598C680.538 34.1477 680.772 34.0893 681.01 34.0899H696.01C696.3 34.089 696.584 34.1753 696.825 34.3375C697.065 34.4997 697.252 34.7305 697.36 34.9999Z" fill="#05662C"/>
<path d="M826.2 43.66C833.96 51.14 837.78 60.3199 837.78 71.3299C837.78 82.3399 833.96 91.7999 826.2 99.4199C822.522 103.1 818.138 105.998 813.31 107.939C808.482 109.879 803.312 110.822 798.11 110.71C792.889 110.795 787.704 109.84 782.856 107.902C778.008 105.964 773.593 103.08 769.87 99.4199C762.11 91.9399 758.3 82.6199 758.3 71.6099C758.198 66.4142 759.187 61.2549 761.202 56.4648C763.218 51.6748 766.215 47.3603 770 43.7999C773.721 40.1389 778.133 37.2551 782.98 35.3168C787.827 33.3784 793.011 32.4243 798.23 32.51C803.4 32.4098 808.538 33.3447 813.341 35.2595C818.145 37.1743 822.517 40.0305 826.2 43.66ZM775.52 71.3299C775.404 77.6209 777.672 83.7229 781.87 88.41C783.926 90.7024 786.456 92.5209 789.284 93.7399C792.112 94.9588 795.171 95.5491 798.25 95.4699C804.89 95.4699 810.39 93.2099 814.48 88.5499C818.605 83.8837 820.826 77.837 820.7 71.6099C820.844 65.3544 818.565 59.2851 814.34 54.67C810.25 50.01 804.74 47.7499 798.11 47.7499C791.48 47.7499 785.97 50.01 781.73 54.67C777.594 59.2175 775.369 65.1845 775.52 71.3299Z" fill="#05662C"/>
<path d="M843.48 91.1298L853.4 85.5798C854.87 84.7598 855.72 85.0498 856.11 85.7498C860.17 92.9398 865.88 96.5898 873.49 96.5898C879.84 96.5898 885.34 93.3498 885.34 88.2698C885.34 83.8898 880.12 80.4998 869.82 78.3898C861.49 76.6898 855.13 73.7298 851.04 69.3898C847.528 65.7053 845.604 60.7892 845.68 55.6998C845.619 52.4723 846.33 49.2768 847.752 46.3791C849.175 43.4815 851.269 40.9653 853.86 39.0398C859.305 34.6997 866.098 32.4035 873.06 32.5498C886.06 32.5498 895.35 37.7698 900.69 48.2298C900.856 48.5687 900.887 48.9583 900.775 49.3189C900.664 49.6796 900.419 49.984 900.09 50.1698L889.58 56.1098C889.411 56.2061 889.225 56.2675 889.032 56.2905C888.839 56.3134 888.644 56.2973 888.457 56.2432C888.271 56.1891 888.097 56.0981 887.946 55.9755C887.796 55.853 887.671 55.7014 887.58 55.5298C884.19 49.6198 879.19 46.6598 872.47 46.6598C867.25 46.6598 861.88 49.9098 861.88 53.9998C861.88 58.9398 866.11 61.4798 875.88 63.5998C892.96 67.4098 901.99 75.5998 901.99 87.3198C902.059 90.56 901.383 93.7727 900.013 96.7099C898.643 99.6471 896.617 102.23 894.09 104.26C888.86 108.64 881.94 110.75 873.48 110.75C859.02 110.75 848.78 104.82 842.89 93.0998C842.711 92.7595 842.673 92.3627 842.783 91.9944C842.894 91.6262 843.144 91.3158 843.48 91.1298Z" fill="#05662C"/>
<path d="M677.81 154.94H664.14C663.875 154.94 663.62 155.045 663.433 155.233C663.245 155.42 663.14 155.675 663.14 155.94V164.48C659.14 158.77 650.64 153.55 640.39 153.55C620.96 153.55 606.17 170.14 606.17 190.45C606.17 210.76 620.96 227.45 640.39 227.45C650.64 227.45 659.13 222.18 663.14 216.52V225C663.14 225.265 663.245 225.519 663.433 225.707C663.62 225.894 663.875 226 664.14 226H677.81C678.075 226 678.329 225.894 678.517 225.707C678.705 225.519 678.81 225.265 678.81 225V155.92C678.805 155.658 678.697 155.409 678.51 155.226C678.323 155.042 678.072 154.94 677.81 154.94ZM643.25 213.18C630.75 213.18 622.11 203.18 622.11 190.43C622.11 177.68 630.75 167.73 643.25 167.73C655.75 167.73 664.44 177.64 664.44 190.43C664.44 203.22 655.75 213.18 643.25 213.18Z" fill="#05662C"/>
<path d="M603 211.76H565.66L602.66 167.68C602.813 167.525 602.902 167.318 602.91 167.1V155.92C602.91 155.655 602.805 155.4 602.617 155.213C602.43 155.025 602.175 154.92 601.91 154.92H547C546.735 154.92 546.48 155.025 546.293 155.213C546.105 155.4 546 155.655 546 155.92V168.17C546 168.435 546.105 168.69 546.293 168.877C546.48 169.065 546.735 169.17 547 169.17H582.69L545.69 213.34C545.552 213.524 545.481 213.75 545.49 213.98V224.98C545.49 225.245 545.595 225.5 545.783 225.687C545.97 225.875 546.225 225.98 546.49 225.98H603C603.265 225.98 603.52 225.875 603.707 225.687C603.895 225.5 604 225.245 604 224.98V212.74C603.995 212.478 603.887 212.229 603.7 212.046C603.513 211.862 603.262 211.76 603 211.76Z" fill="#05662C"/>
<path d="M535.31 154.94H521.65C521.385 154.94 521.13 155.045 520.943 155.233C520.755 155.42 520.65 155.675 520.65 155.94V225.74C520.65 225.55 521.09 225.98 521.65 225.98H535.32C535.585 225.98 535.839 225.875 536.027 225.687C536.215 225.5 536.32 225.245 536.32 224.98V155.92C536.315 155.656 536.206 155.406 536.016 155.222C535.827 155.039 535.573 154.937 535.31 154.94Z" fill="#05662C"/>
<path d="M535.57 129.47H521.4C521.135 129.47 520.88 129.575 520.693 129.763C520.505 129.95 520.4 130.205 520.4 130.47V145.2C520.4 145.465 520.505 145.719 520.693 145.907C520.88 146.094 521.135 146.2 521.4 146.2H526.4C532.4 146.2 536.54 142.57 536.54 136.53V130.47C536.54 130.21 536.439 129.96 536.258 129.773C536.077 129.586 535.83 129.478 535.57 129.47Z" fill="#05662C"/>
<path d="M507.92 129.47H494.25C493.985 129.47 493.73 129.575 493.543 129.763C493.355 129.95 493.25 130.205 493.25 130.47V225C493.25 225.265 493.355 225.519 493.543 225.707C493.73 225.894 493.985 226 494.25 226H507.92C508.185 226 508.44 225.894 508.627 225.707C508.815 225.519 508.92 225.265 508.92 225V130.44C508.912 130.18 508.803 129.933 508.617 129.752C508.43 129.571 508.18 129.47 507.92 129.47Z" fill="#05662C"/>
<path d="M481 154.94H467.34C467.075 154.94 466.82 155.045 466.633 155.233C466.445 155.42 466.34 155.675 466.34 155.94V164.48C462.34 158.77 453.85 153.55 443.6 153.55C424.17 153.55 409.38 170.14 409.38 190.45C409.38 210.76 424.17 227.45 443.6 227.45C453.85 227.45 462.34 222.18 466.34 216.52V225C466.34 225.265 466.445 225.519 466.633 225.707C466.82 225.894 467.075 226 467.34 226H481C481.265 226 481.519 225.894 481.707 225.707C481.895 225.519 482 225.265 482 225V155.92C481.995 155.658 481.887 155.409 481.7 155.226C481.513 155.042 481.262 154.94 481 154.94ZM446.5 213.18C433.95 213.18 425.31 203.18 425.31 190.43C425.31 177.68 433.95 167.73 446.5 167.73C459.05 167.73 467.63 177.64 467.63 190.43C467.63 203.22 459 213.18 446.5 213.18Z" fill="#05662C"/>
<path d="M394.26 200.88C394.145 200.816 394.019 200.776 393.888 200.761C393.758 200.746 393.626 200.757 393.499 200.793C393.373 200.829 393.255 200.89 393.152 200.972C393.049 201.054 392.964 201.155 392.9 201.27C391.131 204.784 388.414 207.733 385.056 209.785C381.699 211.837 377.835 212.909 373.9 212.88C361.21 212.88 352.23 203.03 352.27 190.28C352.37 177.2 363.27 166.75 376.27 168.12C379.778 168.484 383.137 169.726 386.038 171.73C388.939 173.735 391.289 176.438 392.87 179.59C392.928 179.71 393.01 179.817 393.111 179.905C393.211 179.993 393.328 180.06 393.455 180.102C393.582 180.144 393.716 180.16 393.849 180.149C393.982 180.138 394.112 180.101 394.23 180.04L406.09 173.59C406.313 173.463 406.48 173.255 406.554 173.01C406.629 172.764 406.606 172.499 406.49 172.27C400.24 160.8 388.28 153.53 373.88 153.53C352.55 153.53 336.34 169.44 336.34 190.43C336.34 211.42 352.55 227.43 373.88 227.43C388.28 227.43 400.24 220.11 406.49 208.69C406.557 208.578 406.6 208.454 406.616 208.325C406.632 208.196 406.621 208.065 406.583 207.941C406.545 207.817 406.482 207.702 406.397 207.603C406.312 207.505 406.208 207.425 406.09 207.37L394.26 200.88Z" fill="#05662C"/>
<path d="M294.58 153.53C273.58 153.53 257.34 169.83 257.34 190.43C257.34 211.03 273.54 227.43 294.58 227.43C299.468 227.501 304.321 226.593 308.853 224.762C313.385 222.93 317.505 220.21 320.971 216.763C324.437 213.316 327.179 209.21 329.035 204.688C330.891 200.166 331.825 195.318 331.78 190.43C331.78 169.83 315.57 153.53 294.58 153.53ZM294.58 212.88C281.94 212.88 273.1 203.07 273.1 190.43C273.1 177.79 281.94 168 294.58 168C307.22 168 315.86 177.82 315.86 190.46C315.86 203.1 307.08 212.88 294.58 212.88Z" fill="#05662C"/>
<path d="M255.72 210.05H224.48V155.92C224.48 155.655 224.375 155.4 224.187 155.213C223.999 155.025 223.745 154.92 223.48 154.92H208.86C208.595 154.92 208.34 155.025 208.153 155.213C207.965 155.4 207.86 155.655 207.86 155.92V211.92C207.855 215.647 209.329 219.224 211.96 221.864C214.591 224.504 218.163 225.992 221.89 226H255.72C255.985 226 256.239 225.895 256.427 225.707C256.615 225.519 256.72 225.265 256.72 225V211C256.707 210.743 256.596 210.502 256.41 210.325C256.224 210.148 255.977 210.05 255.72 210.05Z" fill="#05662C"/>
<path d="M133.7 175.68V229.47C133.7 231.202 133.012 232.863 131.787 234.087C130.563 235.312 128.902 236 127.17 236H77.1C66.9742 236 56.9476 234.005 47.5928 230.13C38.2379 226.255 29.7381 220.575 22.5786 213.414C15.419 206.254 9.74008 197.753 5.86603 188.398C1.99198 179.042 -0.00131268 169.016 6.48565e-07 158.89V123.63C0.00784436 122.338 0.400016 121.077 1.12659 120.009C1.85316 118.94 2.88128 118.112 4.08002 117.63L66.85 92.3098V158.82C66.85 161.573 67.9436 164.213 69.8903 166.16C71.8369 168.106 74.477 169.2 77.23 169.2H127.17C128.893 169.2 130.547 169.881 131.77 171.095C132.993 172.309 133.687 173.957 133.7 175.68Z" fill="#05662C"/>
<path d="M133.7 4.35985V35.8799C133.7 56.8799 124.05 69.1599 105.02 76.8799L66.8599 92.2898V29.3199C66.862 28.0176 67.2522 26.7455 67.9807 25.6661C68.7092 24.5867 69.743 23.749 70.9499 23.2599L127.72 0.319871C128.381 0.0527825 129.097 -0.0478246 129.806 0.0269024C130.515 0.101629 131.194 0.34938 131.785 0.748399C132.376 1.14742 132.859 1.68546 133.193 2.3152C133.527 2.94494 133.701 3.64707 133.7 4.35985Z" fill="#FF8026"/>
</svg>
