<svg width="653" height="149" viewBox="0 0 653 149" fill="none" xmlns="http://www.w3.org/2000/svg">
<path d="M76.5177 20.4047C78.1854 20.4047 79.8335 20.8481 81.2775 21.6839L127.906 48.7281C130.822 50.4193 132.631 53.5624 132.631 56.9331V118.485C132.631 123.715 128.377 127.969 123.146 127.969H122.244C119.54 127.969 116.974 126.458 115.377 123.923C106.913 110.484 92.3863 102.463 76.5138 102.463C60.6413 102.463 46.1147 110.488 37.6507 123.923C36.0811 126.419 33.091 127.969 29.8498 127.969C24.6387 127.969 20.4008 123.731 20.4008 118.52V56.9331C20.4008 53.5624 22.2098 50.4193 25.1253 48.7281L71.754 21.6839C73.202 20.8481 74.85 20.4047 76.5177 20.4047ZM76.5177 0C71.3381 0 66.1584 1.34593 61.5242 4.03386L14.8955 31.078C5.67409 36.4264 0 46.2756 0 56.9331V118.52C0 135.009 13.3651 148.374 29.8537 148.374C39.9658 148.374 49.5286 143.355 54.9201 134.801C59.4366 127.632 67.4219 122.868 76.5177 122.868C85.6135 122.868 93.5988 127.632 98.1153 134.801C103.37 143.147 112.383 148.374 122.248 148.374H123.15C139.659 148.374 153.039 134.993 153.039 118.485V56.9331C153.039 46.2756 147.365 36.4264 138.148 31.078L91.5191 4.03386C86.877 1.34593 81.6974 0 76.5177 0Z" fill="#FF2700"/>
<path d="M194.638 105.027C200.137 105.027 204.657 102.843 207.745 99.2268C208.423 98.3982 208.272 97.6449 207.293 96.8916L202.397 93.2005C201.493 92.5225 200.74 92.5978 199.836 93.3511C198.856 94.1797 197.35 94.8577 194.939 94.8577C190.42 94.8577 187.331 91.5432 187.331 87.0235C187.331 82.5038 190.42 79.2647 194.939 79.2647C197.274 79.2647 198.856 80.018 199.836 80.8466C200.74 81.5999 201.493 81.6752 202.397 80.9972L207.293 77.2308C208.197 76.4775 208.348 75.5736 207.594 74.6696C204.581 71.2045 200.062 69.0953 194.638 69.0953C184.092 69.0953 176.86 76.4775 176.86 87.0235C176.86 97.5695 184.092 105.027 194.638 105.027ZM228.662 104.952C232.504 104.952 235.442 103.671 237.626 101.487V102.918C237.626 103.822 238.304 104.349 239.434 104.349H246.515C247.645 104.349 248.323 103.671 248.323 102.541V71.5058C248.323 70.3759 247.645 69.6979 246.515 69.6979H239.434C238.304 69.6979 237.626 70.3759 237.626 71.5058V72.5604C235.442 70.4512 232.504 69.1706 228.662 69.1706C219.322 69.1706 212.391 76.4775 212.391 87.0235C212.391 97.3436 219.322 104.952 228.662 104.952ZM230.244 94.8577C225.725 94.8577 222.787 91.5432 222.787 87.0235C222.787 82.5038 225.725 79.2647 230.244 79.2647C234.764 79.2647 237.626 82.5038 237.626 87.0235C237.626 91.5432 234.764 94.8577 230.244 94.8577ZM258.15 104.349H265.231C266.361 104.349 267.039 103.671 267.039 102.541V89.434C267.039 80.6959 273.743 79.4907 277.434 79.2647C278.639 79.2647 279.242 78.5867 279.242 77.4568V71.0538C279.242 69.8486 278.564 69.1706 277.359 69.3213C273.442 69.8486 269.675 71.8071 267.039 75.9502V71.5058C267.039 70.3759 266.361 69.6979 265.231 69.6979H258.15C257.02 69.6979 256.342 70.3759 256.342 71.5058V102.541C256.342 103.671 257.02 104.349 258.15 104.349ZM297.312 104.349H304.694C305.674 104.349 306.352 103.822 306.728 102.918L319.157 71.8071C319.685 70.6019 319.082 69.6979 317.726 69.6979H310.419C309.44 69.6979 308.762 70.2252 308.385 71.1292L301.003 89.8107L293.772 71.1292C293.395 70.1499 292.717 69.6979 291.738 69.6979H284.431C283.075 69.6979 282.548 70.6019 283 71.8071L295.278 102.918C295.655 103.822 296.333 104.349 297.312 104.349ZM338.271 104.952C342.113 104.952 345.051 103.671 347.236 101.487V102.918C347.236 103.822 347.914 104.349 349.043 104.349H356.124C357.254 104.349 357.932 103.671 357.932 102.541V71.5058C357.932 70.3759 357.254 69.6979 356.124 69.6979H349.043C347.914 69.6979 347.236 70.3759 347.236 71.5058V72.5604C345.051 70.4512 342.113 69.1706 338.271 69.1706C328.931 69.1706 322 76.4775 322 87.0235C322 97.3436 328.931 104.952 338.271 104.952ZM339.853 94.8577C335.334 94.8577 332.396 91.5432 332.396 87.0235C332.396 82.5038 335.334 79.2647 339.853 79.2647C344.373 79.2647 347.236 82.5038 347.236 87.0235C347.236 91.5432 344.373 94.8577 339.853 94.8577ZM367.759 104.349H374.84C375.97 104.349 376.648 103.671 376.648 102.541L376.723 57.1934C376.723 56.0634 376.045 55.3855 374.915 55.3855H367.759C366.629 55.3855 365.951 56.0634 365.951 57.1934V102.541C365.951 103.671 366.629 104.349 367.759 104.349ZM386.444 104.349H393.525C394.655 104.349 395.333 103.671 395.333 102.541V84.9143C395.333 79.0387 399.325 78.2101 401.209 78.2101C403.092 78.2101 407.235 79.0387 407.235 84.9143V102.541C407.235 103.671 407.913 104.349 409.043 104.349H416.199C417.329 104.349 418.007 103.671 418.007 102.541V83.1818C418.007 72.3344 410.549 69.1706 404.523 69.1706C401.435 69.1706 397.969 69.9992 395.333 72.5604V57.1934C395.333 56.0634 394.655 55.3855 393.525 55.3855H386.444C385.314 55.3855 384.636 56.0634 384.636 57.1934V102.541C384.636 103.671 385.314 104.349 386.444 104.349ZM442.478 105.102C452.948 105.102 460.406 97.3436 460.406 87.0235C460.406 76.4775 452.948 68.9446 442.478 68.9446C431.932 68.9446 424.474 76.4775 424.474 87.0235C424.474 97.3436 431.932 105.102 442.478 105.102ZM442.478 94.8577C437.958 94.8577 435.02 91.4679 435.02 87.0235C435.02 82.5791 437.958 79.2647 442.478 79.2647C446.922 79.2647 449.784 82.5791 449.784 87.0235C449.784 91.4679 446.922 94.8577 442.478 94.8577ZM496.8 104.952C500.642 104.952 503.58 103.671 505.764 101.487V102.918C505.764 103.822 506.442 104.349 507.572 104.349H514.653C515.783 104.349 516.461 103.671 516.461 102.541V57.1934C516.461 56.0634 515.783 55.3855 514.653 55.3855H507.572C506.442 55.3855 505.764 56.0634 505.764 57.1934V72.5604C503.58 70.4512 500.642 69.1706 496.8 69.1706C487.459 69.1706 480.529 76.4775 480.529 87.0235C480.529 97.3436 487.459 104.952 496.8 104.952ZM498.382 94.8577C493.862 94.8577 490.924 91.5432 490.924 87.0235C490.924 82.5038 493.862 79.2647 498.382 79.2647C502.902 79.2647 505.764 82.5038 505.764 87.0235C505.764 91.5432 502.902 94.8577 498.382 94.8577ZM540.751 105.102C546.476 105.102 551.297 102.918 554.385 99.3774C555.063 98.6241 554.837 97.7955 553.858 97.0422L549.414 93.7278C548.51 93.0498 547.756 93.2758 546.928 93.9538C545.723 95.0084 543.839 95.9876 540.751 95.9876C537.21 95.9876 534.348 93.8031 533.444 89.886H555.289C556.419 89.886 557.097 89.2081 557.097 88.0781V87.0235C557.097 76.7035 550.77 69.02 540.374 69.02C529.828 69.02 523.049 76.7035 523.049 87.0235C523.049 97.3436 530.054 105.102 540.751 105.102ZM533.595 83.1818C534.574 79.6413 536.909 77.4568 540.374 77.4568C543.99 77.4568 546.099 79.8673 547.003 83.1818H533.595ZM592.332 105.404C601.221 105.404 606.795 101.562 606.795 94.1797C606.795 86.6469 597.379 84.0104 594.818 83.1064C592.332 82.2025 588.49 81.5245 588.49 79.1893C588.49 77.9841 589.47 77.0801 591.88 77.0801C594.441 77.0801 597.229 78.4361 598.886 79.792C599.714 80.4699 600.468 80.6206 601.372 80.018L605.439 77.3061C606.419 76.7035 606.72 75.7996 606.042 74.8203C603.631 71.6565 598.961 68.8693 592.257 68.8693C584.875 68.8693 578.095 72.1084 578.095 79.7166C578.095 87.4755 587.511 89.886 589.997 90.79C592.483 91.6939 596.4 92.3719 596.4 94.5564C596.4 96.2136 595.044 96.9669 592.407 96.9669C589.47 96.9669 586.381 95.0084 584.724 93.4265C583.971 92.5225 583.217 92.3719 582.313 92.9745L577.869 95.9876C576.89 96.6656 576.664 97.4942 577.191 98.4735C579.526 102.014 584.573 105.404 592.332 105.404ZM629.482 64.6509H634.529C635.508 64.6509 636.186 64.2743 636.638 63.3703L639.426 57.8713C640.028 56.5907 639.426 55.7621 638.07 55.7621H632.872C631.893 55.7621 631.215 56.1388 630.763 57.118L628.126 62.5417C627.524 63.747 628.126 64.6509 629.482 64.6509ZM627.448 104.952C631.29 104.952 634.228 103.671 636.412 101.487V102.918C636.412 103.822 637.09 104.349 638.22 104.349H645.301C646.431 104.349 647.109 103.671 647.109 102.541V71.5058C647.109 70.3759 646.431 69.6979 645.301 69.6979H638.22C637.09 69.6979 636.412 70.3759 636.412 71.5058V72.5604C634.228 70.4512 631.29 69.1706 627.448 69.1706C618.108 69.1706 611.177 76.4775 611.177 87.0235C611.177 97.3436 618.108 104.952 627.448 104.952ZM629.03 94.8577C624.51 94.8577 621.573 91.5432 621.573 87.0235C621.573 82.5038 624.51 79.2647 629.03 79.2647C633.55 79.2647 636.412 82.5038 636.412 87.0235C636.412 91.5432 633.55 94.8577 629.03 94.8577Z" fill="#111820"/>
<path d="M190.194 44.0974L190.755 43.6762C191.001 43.4656 191.071 43.2199 190.861 42.9391C189.421 41.184 187.245 40.131 184.612 40.131C179.768 40.131 176.469 43.606 176.469 48.4501C176.469 53.2941 179.768 56.8043 184.612 56.8043C187.245 56.8043 189.421 55.7512 190.861 53.961C191.071 53.6802 191.036 53.3994 190.755 53.2239L190.194 52.8378C189.948 52.6623 189.667 52.6623 189.456 52.908C188.368 54.1365 186.789 54.9439 184.648 54.9439C180.857 54.9439 178.364 52.241 178.364 48.4501C178.364 44.6591 180.857 41.9562 184.648 41.9562C186.789 41.9562 188.368 42.7987 189.456 44.0272C189.667 44.273 189.948 44.3081 190.194 44.0974ZM202.37 56.8394C207.214 56.8394 210.513 53.259 210.513 48.4501C210.513 43.606 207.214 40.0959 202.37 40.0959C197.526 40.0959 194.191 43.606 194.191 48.4501C194.191 53.259 197.526 56.8394 202.37 56.8394ZM202.37 54.9439C198.649 54.9439 196.122 52.1708 196.122 48.4501C196.122 44.7293 198.649 41.9562 202.37 41.9562C206.091 41.9562 208.548 44.7293 208.548 48.4501C208.548 52.1708 206.091 54.9439 202.37 54.9439ZM222.002 40.131C219.861 40.131 217.79 40.9734 216.596 42.7987V40.9032C216.596 40.5873 216.385 40.3767 216.07 40.3767H215.192C214.876 40.3767 214.666 40.5873 214.666 40.9032V55.9969C214.666 56.3128 214.876 56.5234 215.192 56.5234H216.07C216.385 56.5234 216.596 56.3128 216.596 55.9969V46.8003C216.596 43.606 218.772 41.8158 221.581 41.8158C224.354 41.8158 226.565 43.606 226.565 46.8003V55.9969C226.565 56.3128 226.776 56.5234 227.092 56.5234H227.969C228.285 56.5234 228.496 56.3128 228.496 55.9969V46.5546C228.496 42.1317 225.336 40.131 222.002 40.131ZM232.477 53.6802C233.424 55.6459 235.671 56.9096 238.97 56.9096C242.902 56.9096 245.148 55.2598 245.148 52.0655C245.148 48.6256 240.831 47.8182 239.216 47.397C237.637 46.9758 234.758 46.5546 234.758 44.4485C234.758 42.6934 236.197 41.6403 238.795 41.6403C240.866 41.6403 242.551 42.4477 243.218 43.5007C243.428 43.7815 243.604 43.8868 243.92 43.7113L244.446 43.4656C244.762 43.2901 244.867 43.0444 244.692 42.7636C243.85 41.184 241.708 40.0607 238.83 40.0607C235.32 40.0607 232.863 41.6052 232.863 44.5187C232.863 47.8182 236.899 48.4852 238.479 48.9064C240.059 49.3276 243.253 49.819 243.253 52.1357C243.253 54.2418 241.814 55.2949 238.97 55.2949C236.583 55.2949 234.758 54.312 233.951 52.908C233.775 52.592 233.53 52.5218 233.249 52.6974L232.722 52.9782C232.441 53.1186 232.336 53.3643 232.477 53.6802ZM256.141 41.3946V40.9032C256.141 40.5873 255.931 40.3767 255.615 40.3767H252.104V35.989C252.104 35.673 251.894 35.4624 251.578 35.4624H250.7C250.384 35.4624 250.174 35.673 250.174 35.989V40.3767H248.384C248.068 40.3767 247.857 40.5873 247.857 40.9032V41.3946C247.857 41.7105 248.068 41.9211 248.384 41.9211H250.174V52.9431C250.174 55.2247 251.578 56.5234 253.789 56.5234H255.439C255.755 56.5234 255.966 56.3128 255.966 55.9969V55.4353C255.966 55.1194 255.755 54.9088 255.439 54.9088H254.386C253.158 54.9088 252.104 54.3471 252.104 52.6974V41.9211H255.615C255.931 41.9211 256.141 41.7105 256.141 41.3946ZM261.639 43.3603V40.9032C261.639 40.5873 261.428 40.3767 261.112 40.3767H260.235C259.919 40.3767 259.708 40.5873 259.708 40.9032V55.9969C259.708 56.3128 259.919 56.5234 260.235 56.5234H261.112C261.428 56.5234 261.639 56.3128 261.639 55.9969V47.397C261.639 43.8868 264.166 42.2371 266.834 41.9913C267.15 41.9562 267.325 41.7456 267.325 41.4297V40.6575C267.325 40.3065 267.15 40.131 266.799 40.1661C264.657 40.3416 262.727 41.3946 261.639 43.3603ZM282.748 40.9032V50.1349C282.748 53.3292 280.572 55.1194 277.764 55.1194C274.991 55.1194 272.779 53.3292 272.779 50.1349V40.9032C272.779 40.5873 272.569 40.3767 272.253 40.3767H271.375C271.059 40.3767 270.849 40.5873 270.849 40.9032V50.3806C270.849 54.8035 274.008 56.8043 277.343 56.8043C279.484 56.8043 281.555 55.9618 282.748 54.1365V55.9969C282.748 56.3128 282.959 56.5234 283.275 56.5234H284.152C284.468 56.5234 284.679 56.3128 284.679 55.9969V40.9032C284.679 40.5873 284.468 40.3767 284.152 40.3767H283.275C282.959 40.3767 282.748 40.5873 282.748 40.9032ZM296.488 41.3946V40.9032C296.488 40.5873 296.277 40.3767 295.961 40.3767H292.451V35.989C292.451 35.673 292.24 35.4624 291.924 35.4624H291.047C290.731 35.4624 290.52 35.673 290.52 35.989V40.3767H288.73C288.414 40.3767 288.204 40.5873 288.204 40.9032V41.3946C288.204 41.7105 288.414 41.9211 288.73 41.9211H290.52V52.9431C290.52 55.2247 291.924 56.5234 294.136 56.5234H295.785C296.101 56.5234 296.312 56.3128 296.312 55.9969V55.4353C296.312 55.1194 296.101 54.9088 295.785 54.9088H294.732C293.504 54.9088 292.451 54.3471 292.451 52.6974V41.9211H295.961C296.277 41.9211 296.488 41.7105 296.488 41.3946ZM306.921 56.8394C311.765 56.8394 315.064 53.259 315.064 48.4501C315.064 43.606 311.765 40.0959 306.921 40.0959C302.077 40.0959 298.742 43.606 298.742 48.4501C298.742 53.259 302.077 56.8394 306.921 56.8394ZM306.921 54.9439C303.2 54.9439 300.673 52.1708 300.673 48.4501C300.673 44.7293 303.2 41.9562 306.921 41.9562C310.641 41.9562 313.099 44.7293 313.099 48.4501C313.099 52.1708 310.641 54.9439 306.921 54.9439ZM321.147 43.3603V40.9032C321.147 40.5873 320.936 40.3767 320.62 40.3767H319.743C319.427 40.3767 319.216 40.5873 319.216 40.9032V55.9969C319.216 56.3128 319.427 56.5234 319.743 56.5234H320.62C320.936 56.5234 321.147 56.3128 321.147 55.9969V47.397C321.147 43.8868 323.674 42.2371 326.342 41.9913C326.658 41.9562 326.833 41.7456 326.833 41.4297V40.6575C326.833 40.3065 326.658 40.131 326.307 40.1661C324.166 40.3416 322.235 41.3946 321.147 43.3603ZM342.922 40.9032V43.7464C341.658 41.535 339.412 40.131 336.463 40.131C331.795 40.131 328.53 43.606 328.53 48.4501C328.53 53.259 331.795 56.8043 336.463 56.8043C339.412 56.8043 341.658 55.3651 342.922 53.1537V55.9969C342.922 56.3128 343.133 56.5234 343.449 56.5234H344.326C344.642 56.5234 344.853 56.3128 344.853 55.9969V40.9032C344.853 40.5873 344.642 40.3767 344.326 40.3767H343.449C343.133 40.3767 342.922 40.5873 342.922 40.9032ZM336.674 54.9439C332.918 54.9439 330.391 52.241 330.391 48.4501C330.391 44.6591 332.918 41.9562 336.674 41.9562C340.465 41.9562 342.922 44.6591 342.922 48.4501C342.922 52.241 340.465 54.9439 336.674 54.9439Z" fill="#111820"/>
</svg>
